<svg xmlns:xlink="http://www.w3.org/1999/xlink" xmlns="http://www.w3.org/2000/svg" id="logo_Arinfo_RVB_svg__Logos" x="0" y="0" viewBox="0 0 460.16 146.53" xml:space="preserve" width="460.16px" height="146.53px"><style>.logo_Arinfo_RVB_svg__st2 { fill: rgb(75, 131, 160); }
</style><path class="logo_Arinfo_RVB_svg__st2" d="M129.48 107.45a.635.635 0 01-.17-.46V99.3c0-.19.06-.35.17-.46.11-.11.27-.17.48-.17h4.68c.19 0 .35.05.45.14.11.09.16.22.16.39s-.05.3-.16.39c-.11.09-.26.13-.45.13h-4.04v2.82h3.79c.2 0 .35.05.45.14.11.09.16.22.16.39s-.05.3-.16.39c-.11.09-.26.14-.45.14h-3.79v2.96h4.04c.41 0 .61.17.61.52 0 .17-.05.3-.16.39-.11.09-.26.14-.45.14h-4.68c-.2.02-.36-.04-.48-.16zm2.93-9.49c-.09 0-.17-.03-.24-.09a.303.303 0 01-.1-.22c0-.08.04-.17.11-.24l1.21-1.28c.16-.16.33-.24.5-.24a.514.514 0 01.52.52c0 .2-.12.38-.36.52l-1.46.98a.32.32 0 01-.18.05zm5.26 9.36c-.45-.26-.81-.64-1.06-1.12-.25-.48-.38-1.04-.38-1.68 0-.64.13-1.21.39-1.7s.62-.87 1.09-1.14c.47-.27 1-.41 1.6-.41.32 0 .65.05.97.14.33.09.62.22.87.38.27.19.41.4.41.65 0 .14-.04.27-.11.36-.08.1-.17.15-.29.15-.08 0-.15-.02-.23-.06-.08-.04-.17-.1-.29-.17a3.08 3.08 0 00-.59-.31c-.18-.07-.4-.11-.66-.11-.58 0-1.02.2-1.34.59-.32.39-.48.93-.48 1.63 0 .7.16 1.23.47 1.61.31.38.76.57 1.33.57.25 0 .48-.04.67-.11s.39-.18.6-.31c.09-.06.19-.11.28-.15.09-.04.18-.06.25-.06.12 0 .22.05.29.15.08.1.11.22.11.36 0 .12-.03.23-.1.32s-.17.2-.32.3c-.25.17-.55.3-.89.39-.34.09-.68.14-1.03.14-.58-.02-1.1-.15-1.56-.41zm6.16 0c-.46-.26-.82-.64-1.07-1.12s-.38-1.05-.38-1.7c0-.65.13-1.22.38-1.71s.61-.86 1.07-1.12c.46-.26 1-.39 1.61-.39.61 0 1.15.13 1.61.39s.82.64 1.07 1.12c.25.49.38 1.06.38 1.71 0 .64-.13 1.21-.38 1.7s-.61.86-1.07 1.12-1 .39-1.61.39c-.61 0-1.15-.13-1.61-.39zm2.91-1.18c.3-.37.45-.92.45-1.64 0-.71-.15-1.26-.46-1.63-.31-.38-.74-.57-1.3-.57s-.99.19-1.3.57c-.31.38-.46.92-.46 1.63 0 .72.15 1.27.45 1.64.3.37.74.56 1.3.56.58 0 1.02-.19 1.32-.56zm3.36 1.4c-.12-.1-.18-.25-.18-.46v-7.86c0-.2.06-.36.18-.46.12-.11.28-.16.46-.16.19 0 .34.05.46.16s.18.26.18.46v7.86c0 .2-.06.36-.18.46-.12.1-.27.15-.46.15s-.34-.05-.46-.15zm8.04-1.34c.08.09.11.21.11.36 0 .25-.15.45-.46.62-.3.17-.62.3-.97.39-.35.09-.69.14-1.01.14-.98 0-1.76-.29-2.33-.86-.57-.57-.85-1.35-.85-2.35 0-.64.13-1.2.38-1.69s.6-.87 1.06-1.14c.45-.27.97-.41 1.55-.41.83 0 1.49.27 1.97.8s.72 1.26.72 2.16c0 .34-.15.51-.46.51h-3.93c.08 1.31.72 1.97 1.89 1.97.31 0 .59-.04.81-.13.23-.08.47-.19.72-.33.03-.02.1-.05.21-.11a.75.75 0 01.29-.08c.12.01.22.06.3.15zm-3.69-3.52c-.3.31-.47.75-.53 1.32h3.28c-.03-.58-.17-1.02-.44-1.33-.27-.31-.64-.46-1.13-.46-.49 0-.88.16-1.18.47zm14.17-3.92c.12.11.18.26.18.44v7.86c0 .2-.06.35-.17.46-.11.11-.27.16-.46.16-.2 0-.35-.05-.46-.16a.619.619 0 01-.17-.46v-.51c-.19.37-.46.66-.81.86-.36.2-.77.3-1.23.3-.53 0-1.01-.14-1.43-.41s-.75-.65-.98-1.14c-.23-.49-.35-1.06-.35-1.69 0-.64.12-1.21.35-1.69.23-.48.56-.86.97-1.12s.89-.39 1.44-.39c.47 0 .88.1 1.23.3.35.2.62.48.81.85v-3.23c0-.18.06-.32.17-.43.11-.11.27-.16.46-.16s.33.05.45.16zm-1.56 7.37c.31-.38.46-.92.46-1.63s-.15-1.25-.45-1.63c-.3-.38-.73-.57-1.29-.57s-.99.19-1.3.57c-.31.38-.46.91-.46 1.61 0 .69.16 1.24.47 1.63s.75.59 1.3.59c.54 0 .97-.19 1.27-.57zm8.68.07c.08.09.11.21.11.36 0 .25-.15.45-.46.62-.3.17-.62.3-.97.39-.35.09-.69.14-1.01.14-.98 0-1.76-.29-2.33-.86-.57-.57-.85-1.35-.85-2.35 0-.64.13-1.2.38-1.69s.6-.87 1.06-1.14c.45-.27.97-.41 1.54-.41.83 0 1.49.27 1.97.8s.72 1.26.72 2.16c0 .34-.15.51-.46.51h-3.93c.08 1.31.72 1.97 1.89 1.97.31 0 .59-.04.81-.13.23-.08.47-.19.72-.33.03-.02.1-.05.21-.11a.75.75 0 01.29-.08c.13.01.23.06.31.15zm-3.69-3.52c-.3.31-.47.75-.53 1.32h3.28c-.03-.58-.17-1.02-.44-1.33-.27-.31-.64-.46-1.13-.46-.49 0-.88.16-1.18.47zm5.3 4.5a.92.92 0 01-.32-.29c-.06-.1-.1-.22-.1-.34 0-.14.04-.25.11-.34a.37.37 0 01.29-.14c.11 0 .28.07.52.2.25.14.5.25.74.33s.54.13.91.13c.41 0 .72-.07.95-.22.23-.14.34-.35.34-.61 0-.17-.04-.31-.13-.41-.09-.1-.24-.19-.46-.27-.22-.08-.55-.17-.98-.26-.75-.16-1.28-.38-1.61-.66-.33-.28-.49-.65-.49-1.13 0-.36.11-.69.32-.99.21-.29.5-.52.88-.68.37-.16.8-.24 1.27-.24.34 0 .67.04.99.13.32.09.61.22.85.39.28.19.42.4.42.65 0 .14-.04.25-.12.34-.08.09-.18.14-.29.14-.08 0-.15-.02-.23-.05-.08-.03-.18-.09-.31-.16-.23-.14-.44-.24-.64-.32-.2-.08-.45-.11-.74-.11-.36 0-.64.08-.86.23-.22.15-.32.36-.32.62 0 .24.1.42.3.55s.57.26 1.13.37c.57.12 1.01.25 1.34.41.32.15.55.34.69.57.14.22.21.51.21.86 0 .55-.23.99-.69 1.33-.46.33-1.08.5-1.85.5-.86 0-1.57-.17-2.12-.53zm18.02-8.4c.12.12.18.28.18.48v7.81c0 .2-.05.35-.16.46-.11.11-.25.16-.44.16-.18 0-.32-.05-.42-.16-.1-.11-.15-.26-.15-.46v-5.91l-2.49 4.74c-.16.3-.37.44-.62.44s-.46-.15-.62-.44l-2.5-4.69v5.86c0 .2-.05.35-.15.46-.1.11-.25.16-.43.16a.58.58 0 01-.43-.17c-.11-.11-.16-.26-.16-.45v-7.81c0-.19.06-.35.18-.48.12-.12.27-.18.46-.18.26 0 .47.15.64.46l3.04 5.81 3.01-5.81c.16-.31.37-.46.62-.46.17 0 .32.06.44.18zm7.27 7.42c.08.09.11.21.11.36 0 .25-.15.45-.46.62-.3.17-.62.3-.97.39-.35.09-.69.14-1.01.14-.98 0-1.76-.29-2.33-.86-.57-.57-.85-1.35-.85-2.35 0-.64.13-1.2.38-1.69s.6-.87 1.06-1.14c.45-.27.97-.41 1.55-.41.83 0 1.49.27 1.97.8s.72 1.26.72 2.16c0 .34-.15.51-.46.51h-3.93c.08 1.31.72 1.97 1.89 1.97.31 0 .59-.04.81-.13.23-.08.47-.19.72-.33.03-.02.1-.05.21-.11a.75.75 0 01.29-.08c.13.01.23.06.3.15zm-3.68-3.52c-.3.31-.47.75-.53 1.32h3.28c-.03-.58-.17-1.02-.44-1.33-.27-.31-.64-.46-1.13-.46-.49 0-.89.16-1.18.47zm1.18-2.01c-.09 0-.18-.03-.25-.1a.336.336 0 01-.11-.24c0-.08.03-.16.09-.23l1.37-1.79c.17-.23.36-.34.59-.34.16 0 .3.05.41.17.11.11.17.24.17.39 0 .19-.1.38-.31.55l-1.72 1.51c-.07.05-.15.08-.24.08zm7.46 6.19c.08.08.12.19.12.34 0 .17-.07.3-.2.39-.13.09-.32.13-.58.11l-.34-.02c-.69-.05-1.2-.26-1.54-.63-.34-.37-.51-.91-.51-1.63v-2.99h-.76c-.37 0-.56-.17-.56-.5 0-.15.05-.27.15-.36.1-.09.24-.13.41-.13h.76v-1.31c0-.2.06-.35.17-.46.11-.11.27-.16.46-.16s.35.05.47.16.18.26.18.46v1.31h1.26c.18 0 .32.04.41.13s.15.21.15.36c0 .16-.05.28-.15.37-.1.08-.24.13-.41.13h-1.26v3.08c0 .4.08.69.25.88.17.19.42.29.76.32l.36.02c.18 0 .32.05.4.13zm1.11-7.02c-.14-.14-.22-.31-.22-.53s.07-.4.22-.53c.14-.13.34-.2.59-.2.24 0 .43.07.58.2.15.13.22.31.22.53s-.07.4-.22.53c-.14.14-.34.2-.58.2-.25.01-.45-.06-.59-.2zm.12 7.7c-.12-.1-.18-.25-.18-.46v-5.16c0-.2.06-.36.18-.46.12-.11.28-.16.46-.16.19 0 .34.05.46.16s.18.26.18.46v5.16c0 .2-.06.36-.18.46-.12.1-.27.15-.46.15-.18 0-.34-.05-.46-.15zm8.04-1.34c.08.09.11.21.11.36 0 .25-.15.45-.46.62-.3.17-.62.3-.97.39-.35.09-.69.14-1.01.14-.98 0-1.76-.29-2.33-.86-.57-.57-.85-1.35-.85-2.35 0-.64.13-1.2.38-1.69s.6-.87 1.06-1.14c.45-.27.97-.41 1.55-.41.83 0 1.49.27 1.97.8s.72 1.26.72 2.16c0 .34-.15.51-.46.51h-3.93c.08 1.31.72 1.97 1.89 1.97.31 0 .59-.04.81-.13.23-.08.47-.19.72-.33.03-.02.1-.05.21-.11a.75.75 0 01.29-.08c.13.01.23.06.3.15zm-3.68-3.52c-.3.31-.47.75-.53 1.32h3.28c-.03-.58-.17-1.02-.44-1.33-.27-.31-.64-.46-1.13-.46-.49 0-.89.16-1.18.47zm9.13-.87c0 .19-.05.33-.14.42-.09.09-.25.15-.48.17l-.38.04c-.53.05-.93.24-1.19.56-.26.32-.39.71-.39 1.17v2.91c0 .2-.06.36-.18.46-.12.1-.27.15-.46.15s-.34-.05-.46-.15c-.12-.1-.18-.25-.18-.46v-5.18c0-.19.06-.34.18-.45.12-.11.28-.16.46-.16.17 0 .31.05.43.16.11.11.17.25.17.44v.61c.17-.37.41-.66.74-.85.32-.2.69-.31 1.09-.34l.18-.01c.4-.03.61.14.61.51zm.76 5.37a.92.92 0 01-.32-.29c-.06-.1-.1-.22-.1-.34 0-.14.04-.25.11-.34a.37.37 0 01.29-.14c.11 0 .28.07.52.2.25.14.5.25.74.33.24.08.54.13.91.13.41 0 .72-.07.95-.22.23-.14.34-.35.34-.61 0-.17-.04-.31-.13-.41-.09-.1-.24-.19-.46-.27-.22-.08-.55-.17-.98-.26-.75-.16-1.28-.38-1.61-.66-.33-.28-.49-.65-.49-1.13 0-.36.11-.69.32-.99.21-.29.5-.52.88-.68.37-.16.8-.24 1.27-.24.34 0 .67.04.99.13.32.09.61.22.85.39.28.19.42.4.42.65 0 .14-.04.25-.12.34-.08.09-.18.14-.29.14-.08 0-.15-.02-.23-.05-.08-.03-.18-.09-.31-.16-.23-.14-.44-.24-.64-.32-.2-.08-.45-.11-.74-.11-.36 0-.64.08-.86.23-.22.15-.32.36-.32.62 0 .24.1.42.3.55.2.13.57.26 1.13.37.57.12 1.01.25 1.34.41.32.15.55.34.69.57.14.22.21.51.21.86 0 .55-.23.99-.69 1.33-.46.33-1.08.5-1.85.5-.86 0-1.57-.17-2.12-.53zm14.99-8.42c.12.11.18.26.18.44v7.86c0 .2-.06.35-.17.46-.11.11-.27.16-.46.16-.2 0-.35-.05-.46-.16a.619.619 0 01-.17-.46v-.51c-.19.37-.46.66-.81.86-.36.2-.77.3-1.23.3-.53 0-1.01-.14-1.43-.41s-.75-.65-.98-1.14c-.23-.49-.35-1.06-.35-1.69 0-.64.12-1.21.35-1.69.23-.48.56-.86.97-1.12s.89-.39 1.44-.39c.47 0 .88.1 1.23.3.35.2.62.48.81.85v-3.23c0-.18.06-.32.17-.43.11-.11.27-.16.46-.16s.33.05.45.16zm-1.55 7.37c.31-.38.46-.92.46-1.63s-.15-1.25-.45-1.63c-.3-.38-.73-.57-1.29-.57s-.99.19-1.3.57c-.31.38-.46.91-.46 1.61 0 .69.16 1.24.47 1.63s.75.59 1.3.59c.54 0 .96-.19 1.27-.57zm8.79-4.67c.11.11.17.26.17.46v5.18c0 .18-.06.32-.18.43-.12.11-.28.16-.47.16-.18 0-.32-.05-.43-.16s-.17-.25-.17-.43v-.48c-.2.36-.46.63-.81.81-.34.19-.73.28-1.15.28-1.51 0-2.26-.83-2.26-2.49v-3.31c0-.2.06-.35.17-.46.11-.11.27-.16.48-.16.19 0 .35.05.46.16.11.11.17.26.17.46v3.29c0 .5.1.87.31 1.11.2.24.52.36.94.36.5 0 .9-.16 1.2-.48.3-.32.45-.75.45-1.28v-2.99c0-.19.06-.34.18-.45.12-.11.28-.17.47-.17s.36.05.47.16zm12.67-2.68c.11.12.17.28.17.48v7.77c0 .2-.06.35-.18.48-.12.12-.27.18-.46.18-.22 0-.39-.08-.51-.25l-4.98-6.57v6.17c0 .2-.06.35-.17.48a.58.58 0 01-.45.18c-.19 0-.34-.06-.44-.18a.685.685 0 01-.17-.48v-7.77c0-.19.06-.35.18-.48.12-.12.27-.18.46-.18.22 0 .39.08.51.25l4.98 6.59v-6.18c0-.19.05-.35.17-.48a.58.58 0 01.45-.18c.17-.01.32.05.44.17zm7.37 2.68c.11.11.17.26.17.46v5.18c0 .18-.06.32-.18.43-.12.11-.28.16-.47.16-.18 0-.32-.05-.43-.16a.58.58 0 01-.17-.43v-.48c-.2.36-.46.63-.81.81-.34.19-.73.28-1.15.28-1.51 0-2.26-.83-2.26-2.49v-3.31c0-.2.06-.35.17-.46.11-.11.27-.16.48-.16.19 0 .35.05.46.16.11.11.17.26.17.46v3.29c0 .5.1.87.31 1.11.2.24.52.36.94.36.5 0 .9-.16 1.2-.48.3-.32.45-.75.45-1.28v-2.99c0-.19.06-.34.18-.45.12-.11.28-.17.47-.17s.36.05.47.16zm11.17 2.31v3.31c0 .19-.06.35-.18.45-.12.11-.28.16-.47.16-.19 0-.34-.05-.46-.16a.58.58 0 01-.18-.45v-3.29c0-.52-.09-.89-.28-1.12-.19-.23-.48-.35-.88-.35-.47 0-.84.16-1.11.48-.27.32-.41.75-.41 1.3v2.99c0 .19-.06.35-.18.45-.12.11-.28.16-.47.16-.19 0-.34-.05-.46-.16a.58.58 0 01-.18-.45v-3.29c0-.52-.09-.89-.28-1.12-.19-.23-.48-.35-.88-.35-.47 0-.84.16-1.11.48-.28.32-.41.75-.41 1.3v2.99c0 .19-.06.35-.18.45-.12.11-.27.16-.46.16s-.34-.05-.46-.16a.58.58 0 01-.18-.45v-5.18c0-.19.06-.33.19-.44a.68.68 0 01.46-.16c.18 0 .32.05.44.16.11.11.17.25.17.44v.47c.19-.36.45-.63.78-.81.33-.19.71-.28 1.14-.28.47 0 .87.1 1.18.29.31.19.54.5.69.9.19-.36.46-.66.83-.87.36-.22.78-.32 1.25-.32 1.4-.03 2.09.8 2.09 2.47zm6.91 2.43c.08.09.11.21.11.36 0 .25-.15.45-.46.62-.3.17-.62.3-.97.39-.35.09-.69.14-1.01.14-.98 0-1.76-.29-2.33-.86-.57-.57-.85-1.35-.85-2.35 0-.64.13-1.2.38-1.69s.6-.87 1.06-1.14c.45-.27.97-.41 1.55-.41.83 0 1.49.27 1.97.8s.72 1.26.72 2.16c0 .34-.15.51-.46.51h-3.93c.08 1.31.72 1.97 1.89 1.97.31 0 .59-.04.81-.13.23-.08.47-.19.72-.33.03-.02.1-.05.21-.11a.75.75 0 01.29-.08c.12.01.22.06.3.15zm-3.69-3.52c-.3.31-.48.75-.53 1.32h3.28c-.03-.58-.17-1.02-.44-1.33-.27-.31-.64-.46-1.13-.46-.49 0-.88.16-1.18.47zm1.18-2.01c-.09 0-.18-.03-.25-.1a.336.336 0 01-.11-.24c0-.08.03-.16.09-.23l1.37-1.79c.17-.23.36-.34.59-.34.16 0 .3.05.41.17.11.11.17.24.17.39 0 .19-.1.38-.31.55l-1.72 1.51c-.06.05-.14.08-.24.08zm7.95 1.14c0 .19-.05.33-.14.42s-.25.15-.48.17l-.38.04c-.53.05-.93.24-1.19.56-.26.32-.39.71-.39 1.17v2.91c0 .2-.06.36-.18.46-.12.1-.27.15-.46.15s-.34-.05-.46-.15c-.12-.1-.18-.25-.18-.46v-5.18c0-.19.06-.34.18-.45.12-.11.28-.16.46-.16.17 0 .31.05.43.16.11.11.17.25.17.44v.61c.17-.37.41-.66.74-.85.32-.2.69-.31 1.09-.34l.18-.01c.41-.03.61.14.61.51zm.85-1.97c-.14-.14-.22-.31-.22-.53s.07-.4.22-.53c.14-.13.34-.2.59-.2.24 0 .43.07.58.2.15.13.22.31.22.53s-.07.4-.22.53c-.14.14-.34.2-.58.2-.25.01-.44-.06-.59-.2zm.12 7.7c-.12-.1-.18-.25-.18-.46v-5.16c0-.2.06-.36.18-.46.12-.11.28-.16.46-.16.19 0 .34.05.46.16s.18.26.18.46v5.16c0 .2-.06.36-.18.46-.12.1-.27.15-.46.15-.18 0-.33-.05-.46-.15zm8.45-6.08c.11.11.17.27.17.45v7.45c0 .19-.06.34-.18.45-.12.11-.28.16-.47.16s-.35-.05-.46-.16a.58.58 0 01-.17-.43v-2.81c-.19.37-.46.64-.81.84-.35.2-.76.29-1.23.29-.54 0-1.02-.13-1.44-.39s-.74-.64-.97-1.12c-.23-.48-.34-1.04-.34-1.68 0-.64.12-1.21.35-1.7.23-.49.56-.87.98-1.14s.9-.41 1.43-.41c.47 0 .88.1 1.23.31s.63.49.81.86v-.52c0-.19.06-.34.17-.45.11-.11.27-.17.46-.17.2 0 .35.06.47.17zm-1.55 4.67c.3-.38.45-.92.45-1.63s-.15-1.25-.45-1.63c-.3-.38-.73-.57-1.29-.57-.55 0-.98.2-1.3.59-.31.39-.47.94-.47 1.63s.15 1.23.46 1.61c.31.38.74.57 1.3.57s.99-.19 1.3-.57zm8.78-4.67c.11.11.17.26.17.46v5.18c0 .18-.06.32-.18.43-.12.11-.28.16-.47.16-.18 0-.32-.05-.43-.16a.58.58 0 01-.17-.43v-.48c-.2.36-.46.63-.81.81-.34.19-.73.28-1.15.28-1.51 0-2.26-.83-2.26-2.49v-3.31c0-.2.06-.35.17-.46.11-.11.27-.16.48-.16.19 0 .35.05.46.16.11.11.17.26.17.46v3.29c0 .5.1.87.31 1.11.2.24.52.36.94.36.5 0 .9-.16 1.2-.48.3-.32.45-.75.45-1.28v-2.99c0-.19.06-.34.18-.45.12-.11.28-.17.47-.17s.36.05.47.16zm7.12 4.74c.08.09.11.21.11.36 0 .25-.15.45-.46.62-.3.17-.62.3-.97.39-.35.09-.69.14-1.01.14-.98 0-1.76-.29-2.33-.86-.57-.57-.85-1.35-.85-2.35 0-.64.13-1.2.38-1.69s.6-.87 1.06-1.14c.45-.27.97-.41 1.55-.41.83 0 1.49.27 1.97.8s.72 1.26.72 2.16c0 .34-.15.51-.46.51h-3.93c.08 1.31.72 1.97 1.89 1.97.31 0 .59-.04.81-.13.23-.08.47-.19.72-.33.03-.02.1-.05.21-.11a.75.75 0 01.29-.08c.12.01.22.06.3.15zm-3.69-3.52c-.3.31-.48.75-.53 1.32h3.28c-.03-.58-.17-1.02-.44-1.33-.27-.31-.64-.46-1.13-.46-.49 0-.88.16-1.18.47zM269.07 43.74a2.67 2.67 0 00-2.67 2.67v3.17h8.93v7.19H266.39v28.79h-9.83V56.79h-6.81v-7.21h6.79v-3.54c0-5.24 4.25-9.49 9.49-9.49h9.3v7.19h-6.26zM165.56 85.57V63.03c0-4.45-1.23-7.8-3.69-10.05-2.46-2.26-6.12-3.38-10.97-3.38h-14.12c-2.83 0-5.12 2.32-5.12 5.18v2.25h15.69c3.19 0 5.4.43 6.64 1.3 1.24.87 1.86 2.37 1.86 4.5v.9h-12.36c-5.08 0-8.71.89-10.89 2.67-2.19 1.78-3.28 4.71-3.28 8.8 0 3.31.95 5.87 2.85 7.67 1.9 1.8 4.62 2.7 8.16 2.7h12.07v-7.24h-8.24c-2.07 0-3.43-.25-4.1-.75-.67-.5-1.01-1.38-1.01-2.65 0-1.49.42-2.53 1.25-3.13.83-.6 2.35-.9 4.55-.9h11.07v14.68h9.64zm43.64-49.02h-4.95c-2.71 0-4.91 2.22-4.91 4.96v3.97h9.85v-8.93zm0 13.04h-9.85v35.98h9.85V49.59zm4.01 35.98h9.39V57.49h7.55c2.48 0 4.14.4 4.96 1.2.82.8 1.24 2.55 1.24 5.23v21.64h9.39v-22.8c0-4.71-1.14-8.09-3.43-10.12-2.29-2.03-6.1-3.05-11.44-3.05h-12.76c-2.71 0-4.91 2.22-4.91 4.96v31.02zm-43.64 0h9.39V56.49h4.15c1.8 0 3.27 1.48 3.27 3.31v4.86h8.97v-6c0-3.36-.74-5.71-2.22-7.05-1.48-1.34-4.07-2.02-7.76-2.02h-12.52c-1.81 0-3.27 1.48-3.27 3.31v32.67zM312.8 67.92c0-5.56-1.69-10.01-5.06-13.34-3.4-3.33-7.94-4.99-13.62-4.99-5.71 0-10.27 1.66-13.69 4.99-3.4 3.33-5.1 7.77-5.1 13.34 0 5.51 1.7 9.93 5.1 13.23 3.4 3.33 7.96 4.99 13.69 4.99 5.73 0 10.28-1.65 13.66-4.96 3.35-3.3 5.02-7.72 5.02-13.26zm-27.67 0c0-3.35.78-5.97 2.35-7.85 1.59-1.88 3.78-2.82 6.56-2.82 2.83 0 5.03.94 6.6 2.82 1.59 1.85 2.39 4.47 2.39 7.85 0 3.35-.8 5.97-2.39 7.84-1.59 1.88-3.79 2.82-6.6 2.82s-4.99-.94-6.56-2.82c-1.57-1.87-2.35-4.49-2.35-7.84zM332.36 36.55h.75v71.16h-.75zM360.57 64.12c.07.07.1.16.1.27v3.71c0 .24-.11.41-.32.5-.38.18-.85.32-1.39.42-.55.1-1.1.15-1.66.15-.96 0-1.79-.2-2.48-.6s-1.23-.97-1.6-1.74c-.37-.76-.55-1.67-.55-2.72 0-1.04.18-1.93.55-2.69.36-.76.89-1.34 1.57-1.74.68-.41 1.49-.61 2.42-.61.65 0 1.26.11 1.83.32.57.21 1.04.51 1.4.9.12.12.18.26.18.41 0 .1-.03.19-.08.27-.06.07-.13.11-.21.11-.08 0-.18-.04-.31-.14-.5-.41-.95-.7-1.37-.85-.42-.16-.9-.24-1.44-.24-1.16 0-2.05.37-2.68 1.11-.63.74-.94 1.79-.94 3.16 0 1.39.32 2.46.95 3.19.63.74 1.56 1.11 2.77 1.11.47 0 .93-.04 1.38-.12.45-.08.86-.2 1.21-.34v-3.22h-2.27c-.13 0-.23-.03-.3-.1-.07-.06-.1-.15-.1-.27s.04-.2.1-.27c.07-.07.17-.1.3-.1h2.67c.11.01.2.05.27.12zm10 4.67c0 .1-.04.19-.12.26-.08.07-.17.11-.27.11a.42.42 0 01-.38-.22l-1.89-3.03c-.27-.43-.55-.72-.83-.88-.29-.16-.68-.24-1.18-.24h-1.92v3.91c0 .14-.04.25-.12.33-.08.08-.18.12-.31.12s-.24-.04-.31-.12a.446.446 0 01-.12-.33v-9.06c0-.12.04-.22.13-.31.09-.08.2-.12.33-.12h3.49c1.04 0 1.83.24 2.39.71s.84 1.16.84 2.06c0 .79-.24 1.42-.71 1.89-.48.47-1.15.74-2.02.81.22.08.43.2.62.37.19.17.38.41.57.72l1.74 2.79c.04.07.07.15.07.23zM367 64.04c1.62 0 2.44-.7 2.44-2.09 0-.68-.2-1.19-.6-1.52-.4-.33-1.01-.5-1.83-.5h-3.04v4.1H367zm7.27 4.53c-.66-.41-1.17-.99-1.53-1.75-.35-.76-.53-1.65-.53-2.68 0-1.04.18-1.93.53-2.7.35-.76.86-1.34 1.52-1.75.66-.41 1.44-.61 2.35-.61s1.69.2 2.35.61c.66.41 1.17.99 1.53 1.74s.53 1.65.53 2.69-.18 1.93-.53 2.7c-.35.76-.86 1.34-1.53 1.75-.66.41-1.45.61-2.35.61-.9 0-1.68-.2-2.34-.61zm4.92-1.28c.62-.75.92-1.8.92-3.16s-.31-2.42-.92-3.16c-.61-.74-1.48-1.11-2.6-1.11-1.11 0-1.97.37-2.58 1.12-.61.75-.92 1.8-.92 3.15 0 1.35.31 2.41.92 3.16.61.75 1.47 1.13 2.58 1.13s1.99-.38 2.6-1.13zm4.9.9c-.65-.66-.97-1.64-.97-2.93v-5.69c0-.14.04-.25.12-.33.08-.08.18-.12.31-.12s.24.04.31.12c.08.08.12.19.12.33v5.78c0 2.04.99 3.05 2.97 3.05.98 0 1.72-.26 2.22-.77.5-.51.75-1.27.75-2.28v-5.78c0-.13.04-.24.12-.32.08-.08.18-.12.31-.12s.23.04.31.12.11.19.11.33v5.69c0 1.29-.32 2.26-.97 2.93-.65.66-1.6.99-2.85.99-1.26-.01-2.21-.34-2.86-1zm9.29.83a.446.446 0 01-.12-.33v-9.06c0-.12.04-.22.13-.31.09-.08.2-.12.33-.12H397c1.03 0 1.82.25 2.39.74.56.49.85 1.19.85 2.1 0 .91-.28 1.62-.85 2.12s-1.36.75-2.38.75h-2.87v3.78c0 .14-.04.25-.12.33-.08.08-.18.12-.31.12-.14 0-.25-.04-.33-.12zm3.57-4.85c1.61 0 2.42-.71 2.42-2.13 0-1.4-.81-2.1-2.42-2.1h-2.81v4.23h2.81zm5.38 4.77a.401.401 0 01-.13-.31v-9c0-.12.04-.22.13-.31.09-.08.2-.12.33-.12h5.32c.12 0 .22.03.29.1.07.06.11.16.11.28 0 .11-.04.2-.11.27-.07.06-.17.1-.29.1h-4.93v3.74h4.65c.12 0 .22.03.29.1.07.06.1.16.1.28 0 .12-.04.21-.1.28-.07.07-.17.1-.29.1h-4.65v3.89h4.93c.12 0 .22.03.29.09.07.06.11.15.11.27s-.04.21-.11.28c-.07.07-.17.1-.29.1h-5.32a.497.497 0 01-.33-.14zm-49.55 16.07a.438.438 0 01-.12-.32v-9.11c0-.13.04-.24.12-.32.08-.08.18-.13.31-.13s.24.04.31.13c.08.08.12.19.12.32v9.11c0 .13-.04.24-.12.32-.08.08-.18.13-.31.13-.12 0-.23-.04-.31-.13zm3.1-3.4a.317.317 0 01-.1-.25c0-.11.04-.2.1-.27.07-.07.17-.1.29-.1h3.18c.12 0 .22.04.29.1.07.07.1.16.1.27 0 .1-.04.19-.1.25-.07.07-.17.1-.29.1h-3.18c-.13 0-.22-.03-.29-.1zm15.19-6.35c.08.08.12.19.12.32v9.11c0 .13-.04.24-.11.32s-.18.13-.31.13-.23-.04-.29-.12c-.07-.08-.1-.19-.1-.33v-7.77l-3.32 6.41c-.11.21-.27.32-.46.32s-.35-.11-.46-.32l-3.35-6.36v7.71c0 .14-.03.25-.1.33-.07.08-.16.12-.29.12-.14 0-.24-.04-.31-.12-.07-.08-.1-.19-.1-.33v-9.11c0-.13.04-.24.12-.32.08-.08.19-.13.33-.13.17 0 .31.11.42.32l3.77 7.22 3.71-7.22c.11-.21.25-.32.42-.32.12.01.23.05.31.14zm11.02 9.52c0 .1-.04.19-.13.26s-.18.11-.29.11c-.07 0-.15-.02-.22-.07a.46.46 0 01-.16-.2l-1.06-2.44h-5.43l-1.08 2.44c-.08.18-.21.27-.39.27-.11 0-.21-.04-.29-.11a.342.342 0 01-.12-.27c0-.06.01-.12.03-.15l4.09-9.18c.08-.21.24-.31.46-.31.1 0 .2.03.29.08a.5.5 0 01.19.22l4.07 9.18c.03.05.04.11.04.17zm-6.97-3.1h4.77l-2.38-5.42-2.39 5.42zm15.87-1.56c.07.07.1.16.1.27v3.71c0 .24-.11.41-.32.5-.38.18-.85.32-1.39.42-.55.1-1.1.15-1.66.15-.96 0-1.79-.2-2.48-.6-.7-.4-1.23-.97-1.6-1.73-.37-.76-.55-1.67-.55-2.72 0-1.04.18-1.93.55-2.69.36-.76.89-1.34 1.57-1.74.68-.41 1.49-.61 2.42-.61.65 0 1.26.11 1.83.31.57.21 1.04.51 1.4.9.12.12.18.26.18.4 0 .1-.03.19-.08.27-.06.07-.13.11-.21.11-.08 0-.18-.05-.31-.14-.5-.41-.95-.7-1.37-.85s-.9-.24-1.44-.24c-1.16 0-2.05.37-2.68 1.11s-.95 1.82-.95 3.18c0 1.39.32 2.46.95 3.19.63.74 1.56 1.11 2.77 1.11.47 0 .93-.04 1.38-.12.45-.08.86-.19 1.21-.34v-3.22h-2.27c-.13 0-.23-.03-.3-.1-.07-.07-.1-.15-.1-.27 0-.11.04-.2.1-.27.07-.06.17-.1.3-.1h2.67c.12.01.21.04.28.11zm2.66 4.89a.438.438 0 01-.12-.32v-9.11c0-.13.04-.24.12-.32.08-.08.18-.13.31-.13s.24.04.31.13c.08.08.12.19.12.32v9.11c0 .13-.04.24-.12.32-.08.08-.18.13-.31.13s-.23-.04-.31-.13zm10.93-9.76c.07.08.1.19.1.33v9.11c0 .13-.04.24-.11.32s-.18.13-.31.13c-.14 0-.27-.07-.38-.21l-6.13-8.27v8.04c0 .13-.04.24-.11.32s-.17.13-.29.13c-.14 0-.24-.04-.31-.12-.07-.08-.1-.19-.1-.33v-9.11c0-.13.04-.24.12-.32.08-.08.19-.13.33-.13.15 0 .27.07.36.21l6.12 8.26v-8.02c0-.13.04-.24.11-.32s.17-.13.29-.13c.14-.01.24.03.31.11zm2.79 9.69a.401.401 0 01-.13-.31v-9c0-.12.04-.22.13-.31.09-.08.2-.13.33-.13h5.32c.12 0 .22.03.29.1.07.07.11.16.11.28 0 .11-.04.2-.11.27s-.17.1-.29.1h-4.93v3.74h4.65c.12 0 .22.03.29.1.07.07.1.16.1.28s-.04.21-.1.28-.17.1-.29.1h-4.65v3.89h4.93c.12 0 .22.03.29.09.07.06.11.15.11.27s-.04.21-.11.28c-.07.06-.17.1-.29.1h-5.32c-.13 0-.24-.04-.33-.13zm15.43-.15c0 .1-.04.19-.12.26-.08.07-.17.11-.27.11a.44.44 0 01-.38-.22l-1.89-3.02c-.27-.43-.55-.72-.83-.88-.29-.16-.68-.24-1.18-.24h-1.92v3.91c0 .14-.04.25-.12.33-.08.08-.18.12-.31.12s-.24-.04-.31-.12a.446.446 0 01-.12-.33v-9.06c0-.12.04-.22.13-.31.09-.08.2-.13.33-.13h3.49c1.04 0 1.83.24 2.39.71s.84 1.16.84 2.07c0 .79-.24 1.42-.71 1.89-.48.47-1.15.74-2.02.81.22.07.43.2.62.37.19.17.38.41.57.72l1.74 2.79c.05.07.07.15.07.22zm-3.57-4.75c1.62 0 2.44-.69 2.44-2.09 0-.68-.2-1.19-.6-1.52-.4-.33-1.01-.5-1.83-.5h-3.04v4.1h3.03z" fill="#4B83A0"/><path fill="#9BC4ED" d="M119.52 72.13H97.55L57.9 36.55h41.08z"/><path fill="#7AA2D7" d="M57.9 36.55l10.99 19.03-10.99 52.13-20.54-35.58z"/><path class="logo_Arinfo_RVB_svg__st2" d="M57.9 107.71l10.99-19.03 50.63-16.55-20.54 35.58z" fill="#4B83A0"/><path fill="#D1E6FD" d="M57.9 107.71l10.99-52.13 9.55 16.55z"/><path fill="#C67453" d="M57.9 36.55l39.65 35.58H78.44z"/><path fill="#A8CBF7" d="M119.52 72.13L68.89 88.68l9.55-16.55z"/></svg>